<svg xmlns="http://www.w3.org/2000/svg" width="177" height="50.096" viewBox="0 0 177 50.096"><g transform="translate(155.654 22.395)"><path d="M164.571,56.888l3.712-14.794h4.84l-.158,1.043a17.27,17.27,0,0,1,4.4-1.376,38.335,38.335,0,0,1,3.995.12l-1.473,3.793a4.277,4.277,0,0,0-2.037-.969,8.986,8.986,0,0,0-1.471.092,11.667,11.667,0,0,0-1.985.4,4.564,4.564,0,0,0-1.237.537,3.213,3.213,0,0,0-1.13,1.933c-.348,1.3-.667,2.614-1.018,3.916q-.251.948-.506,1.884l-.474,1.738c-.114.417-.226.833-.338,1.25a3.935,3.935,0,0,1-.119.436Z" transform="translate(-164.571 -41.741)" fill="#f1f1f1"/></g><g transform="translate(147.908 22.745)"><path d="M160.818,42.092h4.317l-3.793,14.794h-4.518Z" transform="translate(-156.825 -42.092)" fill="#f1f1f1"/></g><g transform="translate(165.028 18.599)"><path d="M179.828,37.946a5.883,5.883,0,1,0,5.883,5.883A5.883,5.883,0,0,0,179.828,37.946Zm0,9.789a3.906,3.906,0,1,1,3.906-3.906,3.906,3.906,0,0,1-3.906,3.906Z" transform="translate(-173.945 -37.946)" fill="#f1f1f1"/></g><g transform="translate(126.54 8.23)"><path d="M147.142,46.9s-3.995,4.437-6,3.995-1.049-5.085-.485-6.577,4.922-12.427,4.922-12.427l5.2,24.773,4.478.221S149.22,31.446,149.5,27.717l-3.894-.141s-7.087,11.613-9.293,18.849c-1.83,7.753-.619,10.227,2.528,9.639,2.528-.081,7.934-3.873,9.333-6.133Z" transform="translate(-135.457 -27.576)" fill="#f1f1f1"/></g><g transform="translate(106.44 22.746)"><path d="M130.8,42.317c-7.8-.969-11,1.422-13.072,3.066s-4.358,7.558.591,10.181,11.526.537,11.526.537l.612-3.429a8.686,8.686,0,0,1-4.69,1.643,9.177,9.177,0,0,1-3.171-.326c-3.793-1.637-2.124-3.658-2.124-3.658s1.237.754,5.836.376c7.9-.591,8.473-3.658,8.473-3.658S136.423,43.122,130.8,42.317Zm-.343,3.634c-.242,1.029-1.171,1.634-3.834,2.1a13.329,13.329,0,0,1-5.325-.316,6.024,6.024,0,0,1,4.338-2.844c2.582-.605,5.063.036,4.821,1.065Z" transform="translate(-115.357 -42.093)" fill="#f1f1f1"/></g><g transform="translate(89.608 22.348)"><path d="M102.216,42.061,98.525,56.666h5l2.528-9.6s.665-1.8,3.611-2.138,3.318.013,4.1.645c.525-1.411,1.615-3.766,1.615-3.766a16.3,16.3,0,0,0-8.426,1.252l.168-1.106Z" transform="translate(-98.525 -41.695)" fill="#f1f1f1"/></g><g transform="translate(46.154 16.924)"><path d="M73.369,36.271l-1.715,6.536S61.7,39.654,57.171,45.867s-.766,9.669,2.26,10.678,7.713.3,8.781-.948l-.242,1.15H72.65l5.359-20.476ZM70.617,46.384a13.029,13.029,0,0,1-2.2,6.021,5.042,5.042,0,0,1-3.732,1.828c-2.253.063-4.929-1.474-4.529-4.034a7.3,7.3,0,0,1,6.384-5.531c3.236-.286,4.146,1.291,4.146,1.291-.022.136-.051.277-.07.417Z" transform="translate(-55.071 -36.271)" fill="#f1f1f1"/></g><g transform="translate(121.149)"><path d="M152.562,19.573a39.317,39.317,0,0,1,5.319-.21,25.384,25.384,0,0,1,2.656.232c.882.128,1.756.3,2.629.484a26.777,26.777,0,0,1,2.609.686,9.674,9.674,0,0,1,2.528,1.191,5.071,5.071,0,0,1,.577.463c.093.084.182.175.27.269l.237.256a13.684,13.684,0,0,1,.9,1.1,6.433,6.433,0,0,1,.759,1.323,4.507,4.507,0,0,1,.3,2.454,5.039,5.039,0,0,1-.185.79,7.558,7.558,0,0,1-.281.736c-.112.235-.231.466-.36.681s-.261.427-.4.632-.288.4-.438.583a13.721,13.721,0,0,1-.948,1.073,20.071,20.071,0,0,1-2.1,1.854,23.7,23.7,0,0,1-2.313,1.58c-.2.117-.42.242-.619.344l-.605.316c-.4.213-.815.406-1.225.608-.828.379-1.661.751-2.509,1.076a39.3,39.3,0,0,1-5.2,1.631c-.882.215-1.771.39-2.664.552s-1.79.278-2.686.37a35.506,35.506,0,0,1-5.442.209,26.074,26.074,0,0,1-5.422-.79c-.444-.115-.883-.243-1.319-.389s-.872-.283-1.3-.447a11.1,11.1,0,0,1-2.528-1.278,6.531,6.531,0,0,1-.577-.452c-.093-.079-.182-.169-.272-.253s-.158-.168-.245-.251a7.221,7.221,0,0,1-.888-1.136,4.859,4.859,0,0,1-.747-2.83,6.971,6.971,0,0,1,.747-2.678,9.526,9.526,0,0,1,1.5-2.253,19.946,19.946,0,0,1,4.139-3.366c.749-.474,1.522-.92,2.3-1.338s1.58-.807,2.4-1.163q-1.214.548-2.38,1.191c-.776.43-1.534.893-2.269,1.387a22.654,22.654,0,0,0-2.121,1.594,15.089,15.089,0,0,0-1.873,1.86,8.182,8.182,0,0,0-.76,1.067,6.278,6.278,0,0,0-.536,1.184,7.153,7.153,0,0,0-.3,1.253,5.15,5.15,0,0,0-.044,1.242,3.793,3.793,0,0,0,.3,1.154,4.165,4.165,0,0,0,.632.977,10.9,10.9,0,0,0,.868.861l.235.207c.077.062.149.128.228.186.158.12.316.239.487.349a14.43,14.43,0,0,0,4.665,1.9,24.572,24.572,0,0,0,5.117.594,34.392,34.392,0,0,0,5.182-.333,44.068,44.068,0,0,0,5.115-.984c.842-.209,1.673-.455,2.5-.713s1.64-.556,2.441-.882,1.593-.675,2.37-1.048c.384-.2.773-.386,1.15-.593l.567-.316c.194-.1.357-.205.536-.316a19.19,19.19,0,0,0,3.8-3.287,14.706,14.706,0,0,0,1.484-1.909c.1-.158.191-.326.277-.487a5.329,5.329,0,0,0,.234-.491,5.052,5.052,0,0,0,.171-.484,4.377,4.377,0,0,0,.1-.482,3.1,3.1,0,0,0-.025-1.007,4.651,4.651,0,0,0-.352-1.09,8.517,8.517,0,0,0-.608-1.092l-.175-.267a2.613,2.613,0,0,0-.171-.229,4.155,4.155,0,0,0-.4-.436,9.291,9.291,0,0,0-2.089-1.44,15.222,15.222,0,0,0-2.434-1.007,18.7,18.7,0,0,0-2.577-.616,25.062,25.062,0,0,0-2.641-.284c-.885-.049-1.771-.06-2.658-.04S153.439,19.49,152.562,19.573Z" transform="translate(-130.067 -19.347)" fill="#f1f1f1"/></g><g transform="translate(68.634 22.714)"><path d="M79.959,42.061h5.194l-2.539,9.4a2.02,2.02,0,0,0,.013,1.146c.216.665.866,1.455,2.759,1.312,3.187-.242,4.505-.672,5.205-2.609s2.5-9.252,2.5-9.252h5.03L94.437,56.706H89.514l.242-1.13a14.386,14.386,0,0,1-7.915,1.449A6.555,6.555,0,0,1,78.459,55.5a3.386,3.386,0,0,1-.9-2.822,26.13,26.13,0,0,1,1.032-5.343c.452-1.764.905-3.518,1.364-5.275Z" transform="translate(-77.551 -42.061)" fill="#f1f1f1"/></g><g transform="translate(24.267 22.587)"><path d="M35.847,42.565a3.05,3.05,0,0,1,.605,2.28c-.141,1.473-3.268,11.9-3.268,11.9h5.084s2.26-8.9,2.543-9.751,1.21-1.506,2.77-1.869a8.717,8.717,0,0,1,3.39-.254c.929.122,1.989.74,1.855,1.869s-2.171,8.734-2.595,10.006h5.134l2.329-8.957s1.169-3.813-2.138-5.166a13.541,13.541,0,0,0-10.587.909c-.423-1.694-.525-1.6-.525-1.6Z" transform="translate(-33.184 -41.933)" fill="#f1f1f1"/></g><g transform="translate(0 14.282)"><path d="M15.089,33.629,8.917,56.747H29.755L30.8,53.015h-15l1.95-6.959H28.665l.868-3.491H18.68l1.514-5.286H35.221l1.09-3.65Z" transform="translate(-8.917 -33.629)" fill="#f1f1f1"/></g><g transform="translate(104.627 41.621)"><path d="M119.374,61.644a.579.579,0,0,1-.027.1c-.014.049-.033.106-.057.168s-.049.125-.077.19a1.531,1.531,0,0,1-.1.183.632.632,0,0,1-.112.137.18.18,0,0,1-.122.054h-2.054l-.667,1.678H118.1a.082.082,0,0,1,.087.052.277.277,0,0,1,0,.141.889.889,0,0,1-.032.107,1.379,1.379,0,0,1-.058.158c-.024.052-.049.123-.079.188a1.44,1.44,0,0,1-.1.179.632.632,0,0,1-.111.133.18.18,0,0,1-.123.054h-1.917l-.918,2.331a.216.216,0,0,1-.066.092.362.362,0,0,1-.131.062,1.367,1.367,0,0,1-.213.04,2.953,2.953,0,0,1-.316.014,2.609,2.609,0,0,1-.305-.014.82.82,0,0,1-.18-.04.131.131,0,0,1-.081-.062.112.112,0,0,1,0-.092l2.236-5.665a.618.618,0,0,1,.234-.307.571.571,0,0,1,.316-.093h2.944q.082,0,.095.052A.392.392,0,0,1,119.374,61.644Z" transform="translate(-113.544 -60.968)" fill="#f1f1f1"/><path d="M119.27,67.521a.2.2,0,0,1-.063.084.34.34,0,0,1-.12.06,1.048,1.048,0,0,1-.2.036c-.084.008-.183.013-.3.013a2.9,2.9,0,0,1-.3-.013.669.669,0,0,1-.171-.036.12.12,0,0,1-.073-.06.1.1,0,0,1,0-.084l2.509-6.345a.216.216,0,0,1,.06-.087.327.327,0,0,1,.125-.066,1.138,1.138,0,0,1,.2-.04,2.32,2.32,0,0,1,.3-.016,2.065,2.065,0,0,1,.291.016.62.62,0,0,1,.169.04.118.118,0,0,1,.071.066.131.131,0,0,1,0,.087Z" transform="translate(-113.544 -60.968)" fill="#f1f1f1"/><path d="M125.986,63.209a.946.946,0,0,1-.041.141,1.423,1.423,0,0,1-.076.158c-.167.3-.344.6-.534.917s-.4.642-.632.975-.485.681-.765,1.038-.593.727-.939,1.106l-1.506,1.67a.484.484,0,0,1-.13.1.752.752,0,0,1-.179.068,1.723,1.723,0,0,1-.248.041c-.1.009-.205.014-.329.014a2.615,2.615,0,0,1-.333-.017.394.394,0,0,1-.179-.052.085.085,0,0,1-.035-.1.387.387,0,0,1,.095-.141l1.383-1.441.088-4.14v-.131a.733.733,0,0,1,.013-.115.3.3,0,0,1,.058-.139.261.261,0,0,1,.123-.082.809.809,0,0,1,.21-.041c.085-.008.188-.013.316-.013s.237,0,.316.008a.463.463,0,0,1,.158.032.106.106,0,0,1,.066.071.363.363,0,0,1,0,.122l-.137,3.015h.009c.209-.242.4-.485.585-.733s.351-.5.51-.755.316-.515.455-.777.28-.526.409-.79a.205.205,0,0,1,.06-.084.278.278,0,0,1,.125-.058,1.461,1.461,0,0,1,.218-.033c.089-.008.2-.013.343-.013a1.422,1.422,0,0,1,.419.04.114.114,0,0,1,.1.134Z" transform="translate(-113.544 -60.968)" fill="#f1f1f1"/><path d="M135.638,63.183a.789.789,0,0,1-.049.158c-.024.054-.046.1-.066.139q-.28.521-.6,1.045t-.673,1.035c-.235.341-.482.675-.741,1s-.526.645-.806.948a.444.444,0,0,1-.134.107.676.676,0,0,1-.183.063,1.4,1.4,0,0,1-.231.027h-.292a2.534,2.534,0,0,1-.333-.013.646.646,0,0,1-.193-.041.136.136,0,0,1-.082-.079.277.277,0,0,1,0-.128l.291-2.653-1.715,2.648a.76.76,0,0,1-.111.134.367.367,0,0,1-.158.082,1.243,1.243,0,0,1-.247.041c-.1.008-.231.013-.389.013a3.237,3.237,0,0,1-.379-.013.835.835,0,0,1-.22-.041.158.158,0,0,1-.1-.079.25.25,0,0,1-.013-.128l.381-3.894a.292.292,0,0,1,.016-.111.541.541,0,0,0,.019-.111.509.509,0,0,1,.047-.15.224.224,0,0,1,.106-.095.714.714,0,0,1,.207-.052,2.976,2.976,0,0,1,.356-.017,2.663,2.663,0,0,1,.3.009.526.526,0,0,1,.158.035.1.1,0,0,1,.066.065.2.2,0,0,1,0,.1l-.4,3.16-.016.058.041-.058,2.042-3.16a.451.451,0,0,1,.081-.1.283.283,0,0,1,.119-.065.8.8,0,0,1,.191-.035c.077,0,.172-.009.286-.009a2.764,2.764,0,0,1,.289.013.774.774,0,0,1,.169.033.12.12,0,0,1,.076.058.158.158,0,0,1,.013.084l-.363,3.175v.054l.04-.054c.158-.205.324-.435.495-.684s.34-.514.509-.79.335-.553.495-.839.307-.569.444-.845a.242.242,0,0,1,.07-.1.345.345,0,0,1,.128-.062.936.936,0,0,1,.205-.035q.123-.009.316-.009a2.538,2.538,0,0,1,.291.009.667.667,0,0,1,.158.03.117.117,0,0,1,.071.047.111.111,0,0,1,.019.076Z" transform="translate(-113.544 -60.968)" fill="#f1f1f1"/><path d="M136.056,67.521a.21.21,0,0,1-.062.084.373.373,0,0,1-.123.06,1.105,1.105,0,0,1-.2.036c-.084.008-.183.013-.3.013a2.855,2.855,0,0,1-.292-.013.7.7,0,0,1-.172-.036.118.118,0,0,1-.074-.06.123.123,0,0,1,0-.084l1.7-4.3a.21.21,0,0,1,.062-.084.4.4,0,0,1,.125-.063,1.052,1.052,0,0,1,.2-.041,2.663,2.663,0,0,1,.3-.014,2.4,2.4,0,0,1,.291.014.672.672,0,0,1,.172.041.128.128,0,0,1,.073.063.123.123,0,0,1,0,.084Zm2.37-5.752a1.49,1.49,0,0,1-.158.3.694.694,0,0,1-.452.3,1.674,1.674,0,0,1-.357.032,1.29,1.29,0,0,1-.326-.032.25.25,0,0,1-.212-.3,1.2,1.2,0,0,1,.088-.3,1.5,1.5,0,0,1,.152-.3.746.746,0,0,1,.194-.2.724.724,0,0,1,.259-.111,1.552,1.552,0,0,1,.357-.035,1.2,1.2,0,0,1,.326.035.278.278,0,0,1,.172.111.275.275,0,0,1,.035.2A1.215,1.215,0,0,1,138.427,61.769Z" transform="translate(-113.544 -60.968)" fill="#f1f1f1"/><path d="M141.511,63.261a1.26,1.26,0,0,1-.033.123c-.016.049-.036.1-.058.158a1.855,1.855,0,0,1-.079.174,1.788,1.788,0,0,1-.1.158.579.579,0,0,1-.106.115.158.158,0,0,1-.107.046h-.948l-.8,2.018c-.019.047-.04.1-.06.171s-.035.12-.044.158a.337.337,0,0,0,.038.283.346.346,0,0,0,.275.088,1.082,1.082,0,0,0,.2-.016,1.2,1.2,0,0,0,.158-.04l.112-.038a.264.264,0,0,1,.085-.017.066.066,0,0,1,.06.036.188.188,0,0,1,0,.119,1.433,1.433,0,0,1-.06.207,1.952,1.952,0,0,1-.095.224,1.76,1.76,0,0,1-.109.2.449.449,0,0,1-.254.215,1.511,1.511,0,0,1-.22.068,2.543,2.543,0,0,1-.264.046,2.338,2.338,0,0,1-.275.017,1.786,1.786,0,0,1-.5-.062.724.724,0,0,1-.335-.19.619.619,0,0,1-.158-.333,1.359,1.359,0,0,1,.019-.491.533.533,0,0,1,.03-.123,1.53,1.53,0,0,1,.044-.147c.019-.052.036-.1.055-.158s.036-.1.054-.142l.83-2.1h-.523a.085.085,0,0,1-.085-.041.265.265,0,0,1,0-.158,2.027,2.027,0,0,1,.059-.215,1.839,1.839,0,0,1,.106-.247,1.04,1.04,0,0,1,.145-.22.232.232,0,0,1,.167-.092h.52l.381-.959a.209.209,0,0,1,.063-.087.368.368,0,0,1,.125-.065.866.866,0,0,1,.2-.039c.082-.008.182-.011.3-.011a2.165,2.165,0,0,1,.289.011.532.532,0,0,1,.172.04.13.13,0,0,1,.073.065.12.12,0,0,1,0,.087l-.384.954h.937c.055,0,.09.019.1.054A.316.316,0,0,1,141.511,63.261Z" transform="translate(-113.544 -60.968)" fill="#f1f1f1"/><path d="M144.776,67.521a.2.2,0,0,1-.063.084.344.344,0,0,1-.123.06,1.1,1.1,0,0,1-.2.036c-.081.008-.183.013-.307.013a2.762,2.762,0,0,1-.286-.013.669.669,0,0,1-.171-.036.12.12,0,0,1-.073-.06.1.1,0,0,1,0-.084l1.024-2.574c.025-.068.052-.144.079-.229a2.337,2.337,0,0,0,.058-.229.79.79,0,0,0,.016-.2.334.334,0,0,0-.041-.158.234.234,0,0,0-.106-.1.371.371,0,0,0-.177-.036.962.962,0,0,0-.441.125,2.213,2.213,0,0,0-.474.343,3.308,3.308,0,0,0-.441.506,2.844,2.844,0,0,0-.332.613l-.77,1.941a.231.231,0,0,1-.063.084.344.344,0,0,1-.123.06,1.106,1.106,0,0,1-.2.036c-.082.008-.182.013-.3.013a2.875,2.875,0,0,1-.292-.013.7.7,0,0,1-.172-.036.111.111,0,0,1-.073-.06.112.112,0,0,1,0-.084l2.508-6.345a.232.232,0,0,1,.06-.087.34.34,0,0,1,.125-.066,1.13,1.13,0,0,1,.205-.04,2.3,2.3,0,0,1,.3-.016,2.078,2.078,0,0,1,.291.016.632.632,0,0,1,.169.04.12.12,0,0,1,.07.066.13.13,0,0,1,0,.087l-.684,1.746c-.03.071-.062.147-.1.226s-.071.158-.111.24-.079.158-.119.229-.074.139-.107.2a2.054,2.054,0,0,1,.316-.316,2.793,2.793,0,0,1,.422-.28,2.6,2.6,0,0,1,.487-.2,1.684,1.684,0,0,1,.509-.081,1.356,1.356,0,0,1,.54.092.747.747,0,0,1,.324.256.806.806,0,0,1,.136.39,1.761,1.761,0,0,1-.03.5c-.024.115-.052.231-.087.344s-.074.228-.12.34Z" transform="translate(-113.544 -60.968)" fill="#f1f1f1"/><path d="M154.355,62.972a3.236,3.236,0,0,1-.171.564,3.189,3.189,0,0,1-.316.577,3.263,3.263,0,0,1-.457.534,2.972,2.972,0,0,1-.616.449,3.309,3.309,0,0,1-.79.316,3.935,3.935,0,0,1-.994.114h-.656l-.79,2a.237.237,0,0,1-.065.087.367.367,0,0,1-.134.062,1.284,1.284,0,0,1-.215.036c-.087.008-.191.013-.316.013a1.965,1.965,0,0,1-.3-.013.725.725,0,0,1-.18-.036.136.136,0,0,1-.081-.06.1.1,0,0,1,.008-.088l2.222-5.621a.708.708,0,0,1,.254-.341.679.679,0,0,1,.382-.112h1.375a3.94,3.94,0,0,1,.449.016,3.377,3.377,0,0,1,.382.055,1.711,1.711,0,0,1,.5.179,1.073,1.073,0,0,1,.341.3,1,1,0,0,1,.171.425,1.58,1.58,0,0,1-.006.547Zm-1.375.144a.641.641,0,0,0-.033-.4.458.458,0,0,0-.3-.237.926.926,0,0,0-.22-.046c-.082,0-.175-.013-.278-.013h-.564l-.833,2.119h.583a1.662,1.662,0,0,0,.485-.065,1.632,1.632,0,0,0,.379-.172,1.482,1.482,0,0,0,.3-.251,1.867,1.867,0,0,0,.229-.3,1.945,1.945,0,0,0,.158-.316A1.987,1.987,0,0,0,152.98,63.115Z" transform="translate(-113.544 -60.968)" fill="#f1f1f1"/><path d="M157.538,67.526a.218.218,0,0,1-.058.084.276.276,0,0,1-.107.058,1,1,0,0,1-.174.033,2.3,2.3,0,0,1-.256.013,1.955,1.955,0,0,1-.242-.013.556.556,0,0,1-.142-.033.1.1,0,0,1-.06-.058.12.12,0,0,1,.014-.084l.267-.7a2.229,2.229,0,0,1-.338.333,2.9,2.9,0,0,1-.452.316,2.706,2.706,0,0,1-.523.229,1.827,1.827,0,0,1-.545.087,1.4,1.4,0,0,1-.558-.095.741.741,0,0,1-.33-.256.8.8,0,0,1-.133-.387,1.723,1.723,0,0,1,.03-.493,2.554,2.554,0,0,1,.087-.335c.036-.114.077-.231.123-.349l1.057-2.667a.21.21,0,0,1,.062-.084.316.316,0,0,1,.123-.058,1.274,1.274,0,0,1,.2-.033c.082-.008.182-.013.3-.013a2.819,2.819,0,0,1,.291.013.771.771,0,0,1,.171.033.1.1,0,0,1,.07.142L155.4,65.8a1.824,1.824,0,0,0-.079.221,2.291,2.291,0,0,0-.055.223.832.832,0,0,0-.019.209.37.37,0,0,0,.04.158.231.231,0,0,0,.1.1.4.4,0,0,0,.175.033.948.948,0,0,0,.439-.128,2.185,2.185,0,0,0,.474-.352,3.161,3.161,0,0,0,.45-.531,3.477,3.477,0,0,0,.36-.662l.732-1.858a.171.171,0,0,1,.06-.084.329.329,0,0,1,.125-.058,1.3,1.3,0,0,1,.2-.033c.082-.008.182-.013.3-.013a2.874,2.874,0,0,1,.292.013.809.809,0,0,1,.172.033c.041.014.066.033.074.058a.122.122,0,0,1,0,.084Z" transform="translate(-113.544 -60.968)" fill="#f1f1f1"/><path d="M163.211,63.148a.661.661,0,0,1-.033.122c-.017.058-.041.125-.068.2s-.06.158-.095.239-.073.158-.111.229a.9.9,0,0,1-.117.174.158.158,0,0,1-.112.068.222.222,0,0,1-.084-.017l-.092-.033-.109-.035a.552.552,0,0,0-.142-.016.759.759,0,0,0-.378.125,2.272,2.272,0,0,0-.42.33,3.2,3.2,0,0,0-.4.474,2.871,2.871,0,0,0-.3.57l-.763,1.936a.2.2,0,0,1-.063.084.345.345,0,0,1-.123.06,1.063,1.063,0,0,1-.2.036c-.082.008-.182.013-.3.013a2.818,2.818,0,0,1-.291-.013.683.683,0,0,1-.172-.036.115.115,0,0,1-.074-.06.122.122,0,0,1,0-.084l1.707-4.308a.223.223,0,0,1,.06-.084.289.289,0,0,1,.112-.058.965.965,0,0,1,.175-.033,2.323,2.323,0,0,1,.253-.013,1.964,1.964,0,0,1,.243.013.525.525,0,0,1,.141.033.092.092,0,0,1,.06.058.134.134,0,0,1-.009.084l-.269.686a2.928,2.928,0,0,1,.343-.381,2.772,2.772,0,0,1,.384-.3,2.035,2.035,0,0,1,.4-.2,1.092,1.092,0,0,1,.378-.073,1.146,1.146,0,0,1,.147.009,1.044,1.044,0,0,1,.136.025.57.57,0,0,1,.111.035.346.346,0,0,1,.071.046.112.112,0,0,1,.011.095Z" transform="translate(-113.544 -60.968)" fill="#f1f1f1"/><path d="M167.621,64.582a4.824,4.824,0,0,1-.19.676,5.214,5.214,0,0,1-.316.719,5.035,5.035,0,0,1-.444.687,3.412,3.412,0,0,1-.567.582,2.686,2.686,0,0,1-.684.4,2.129,2.129,0,0,1-.8.15,1.49,1.49,0,0,1-.357-.039,1.231,1.231,0,0,1-.292-.107,1.061,1.061,0,0,1-.228-.158,1.087,1.087,0,0,1-.158-.2l-.76,1.945a.231.231,0,0,1-.063.087.369.369,0,0,1-.125.065,1.071,1.071,0,0,1-.2.041,2.762,2.762,0,0,1-.3.014,2.326,2.326,0,0,1-.288-.014.673.673,0,0,1-.171-.041.117.117,0,0,1-.071-.065.13.13,0,0,1,0-.087l2.377-6.027a.254.254,0,0,1,.179-.144,1.57,1.57,0,0,1,.441-.044,1.965,1.965,0,0,1,.243.013.588.588,0,0,1,.144.033.1.1,0,0,1,.065.058.114.114,0,0,1,0,.084l-.27.7a1.644,1.644,0,0,1,.294-.33,2.514,2.514,0,0,1,.439-.316,2.831,2.831,0,0,1,.533-.234,1.8,1.8,0,0,1,.564-.092,1.241,1.241,0,0,1,.6.128.847.847,0,0,1,.346.349,1.244,1.244,0,0,1,.126.521,2.79,2.79,0,0,1-.062.646Zm-1.278.106a1.492,1.492,0,0,0,.03-.3.555.555,0,0,0-.043-.229.3.3,0,0,0-.128-.142.45.45,0,0,0-.221-.047,1.01,1.01,0,0,0-.465.126,2.293,2.293,0,0,0-.474.348,3.293,3.293,0,0,0-.444.512,2.8,2.8,0,0,0-.335.624l-.264.657a.948.948,0,0,0,.3.4.74.74,0,0,0,.452.133.825.825,0,0,0,.386-.1,1.41,1.41,0,0,0,.351-.258,2.285,2.285,0,0,0,.307-.375,3.694,3.694,0,0,0,.251-.444,3.853,3.853,0,0,0,.186-.465,3.508,3.508,0,0,0,.111-.442Z" transform="translate(-113.544 -60.968)" fill="#f1f1f1"/><path d="M172.856,64.664a4.371,4.371,0,0,1-.2.714,4.249,4.249,0,0,1-.344.716,4.083,4.083,0,0,1-.49.657,3.42,3.42,0,0,1-.632.54,3.181,3.181,0,0,1-.779.368,3.032,3.032,0,0,1-.924.136,2.6,2.6,0,0,1-.826-.114,1.22,1.22,0,0,1-.531-.333,1.058,1.058,0,0,1-.25-.54,2.054,2.054,0,0,1,.027-.735,4.371,4.371,0,0,1,.2-.714,4.257,4.257,0,0,1,.834-1.373,3.258,3.258,0,0,1,.632-.542,3.138,3.138,0,0,1,.777-.367,3.033,3.033,0,0,1,.924-.136,2.6,2.6,0,0,1,.826.114,1.22,1.22,0,0,1,.531.333,1.059,1.059,0,0,1,.25.54,2.054,2.054,0,0,1-.025.735Zm-1.278.082a1.405,1.405,0,0,0,.028-.359.529.529,0,0,0-.085-.265.474.474,0,0,0-.21-.168.926.926,0,0,0-.351-.057,1.133,1.133,0,0,0-.455.093,1.568,1.568,0,0,0-.4.254,2.149,2.149,0,0,0-.337.368,3.5,3.5,0,0,0-.27.441,3.46,3.46,0,0,0-.2.474,3.6,3.6,0,0,0-.123.457,1.5,1.5,0,0,0-.028.362.523.523,0,0,0,.084.267.463.463,0,0,0,.21.166.9.9,0,0,0,.352.058,1.133,1.133,0,0,0,.455-.093,1.6,1.6,0,0,0,.4-.256,2.233,2.233,0,0,0,.337-.371,3.172,3.172,0,0,0,.27-.444,3.653,3.653,0,0,0,.2-.474,3.746,3.746,0,0,0,.122-.454Z" transform="translate(-113.544 -60.968)" fill="#f1f1f1"/><path d="M177.142,63.4a1.624,1.624,0,0,1-.051.172,2.271,2.271,0,0,1-.095.229,1.165,1.165,0,0,1-.12.2c-.041.057-.082.085-.12.085a.276.276,0,0,1-.139-.046c-.051-.032-.114-.065-.188-.1a1.359,1.359,0,0,0-.264-.1,1.422,1.422,0,0,0-.373-.043,1.086,1.086,0,0,0-.316.043.776.776,0,0,0-.243.119.653.653,0,0,0-.168.175.6.6,0,0,0-.089.218.261.261,0,0,0,.074.251,1.275,1.275,0,0,0,.272.19c.112.06.232.122.363.186a1.454,1.454,0,0,1,.351.24.961.961,0,0,1,.239.352.948.948,0,0,1,.019.521,1.9,1.9,0,0,1-.272.678,1.98,1.98,0,0,1-.515.537,2.474,2.474,0,0,1-.724.356,3.012,3.012,0,0,1-.9.128,2.559,2.559,0,0,1-.438-.035,2.654,2.654,0,0,1-.363-.082,1.138,1.138,0,0,1-.262-.111.667.667,0,0,1-.158-.115.183.183,0,0,1-.041-.082.34.34,0,0,1,0-.111.517.517,0,0,1,.028-.111c.013-.044.032-.095.054-.15s.046-.109.071-.158.052-.1.079-.15a.58.58,0,0,1,.085-.107.12.12,0,0,1,.081-.041.223.223,0,0,1,.139.057,1.472,1.472,0,0,0,.954.319,1.285,1.285,0,0,0,.356-.046.857.857,0,0,0,.27-.128.654.654,0,0,0,.18-.188.673.673,0,0,0,.09-.228.3.3,0,0,0-.066-.275,1.081,1.081,0,0,0-.261-.2c-.107-.06-.226-.123-.354-.188a1.509,1.509,0,0,1-.344-.235.887.887,0,0,1-.232-.348.959.959,0,0,1-.017-.521,1.785,1.785,0,0,1,.254-.632,1.909,1.909,0,0,1,.484-.514,2.3,2.3,0,0,1,.678-.343,2.735,2.735,0,0,1,.841-.123,2.821,2.821,0,0,1,.39.027,2.3,2.3,0,0,1,.332.07,1.664,1.664,0,0,1,.248.1.411.411,0,0,1,.142.106A.188.188,0,0,1,177.142,63.4Z" transform="translate(-113.544 -60.968)" fill="#f1f1f1"/><path d="M181.854,64.157a1.479,1.479,0,0,1-.278.624,1.8,1.8,0,0,1-.583.474,3.233,3.233,0,0,1-.905.307,6.4,6.4,0,0,1-1.242.106h-.439c-.027.074-.052.147-.071.22s-.038.139-.049.2a.683.683,0,0,0,.09.588.759.759,0,0,0,.616.2,3.477,3.477,0,0,0,.585-.046c.177-.032.332-.065.474-.1s.247-.071.338-.1a.718.718,0,0,1,.193-.046.077.077,0,0,1,.076.035.171.171,0,0,1,0,.106,1.586,1.586,0,0,1-.052.188,2.137,2.137,0,0,1-.082.21,1.547,1.547,0,0,1-.106.2.541.541,0,0,1-.122.139.75.75,0,0,1-.235.115,3.38,3.38,0,0,1-.4.107c-.158.032-.316.058-.506.079a5.112,5.112,0,0,1-.561.032,2.892,2.892,0,0,1-.79-.1,1.179,1.179,0,0,1-.523-.3.948.948,0,0,1-.253-.5,1.943,1.943,0,0,1,.025-.725,4.584,4.584,0,0,1,.194-.692,4.511,4.511,0,0,1,.338-.728,4.582,4.582,0,0,1,.484-.687,3.3,3.3,0,0,1,.632-.577,3.122,3.122,0,0,1,.779-.4,2.822,2.822,0,0,1,.937-.15,2.268,2.268,0,0,1,.741.1,1.228,1.228,0,0,1,.474.275.841.841,0,0,1,.229.39A1.013,1.013,0,0,1,181.854,64.157Zm-1.217.092a.338.338,0,0,0-.092-.316.575.575,0,0,0-.419-.128,1.152,1.152,0,0,0-.452.087,1.455,1.455,0,0,0-.384.234,1.925,1.925,0,0,0-.316.348,2.717,2.717,0,0,0-.25.427h.408a3.72,3.72,0,0,0,.661-.051,1.86,1.86,0,0,0,.45-.137.806.806,0,0,0,.273-.205.579.579,0,0,0,.12-.251Z" transform="translate(-113.544 -60.968)" fill="#f1f1f1"/><path d="M183.733,66.748a1.236,1.236,0,0,1-.058.2,2.466,2.466,0,0,1-.1.235,1.768,1.768,0,0,1-.123.221.726.726,0,0,1-.144.166.717.717,0,0,1-.262.137,1.28,1.28,0,0,1-.376.046,1.264,1.264,0,0,1-.283-.025.371.371,0,0,1-.158-.081.2.2,0,0,1-.065-.128.493.493,0,0,1,0-.171,1.744,1.744,0,0,1,.052-.191,1.845,1.845,0,0,1,.093-.234,1.9,1.9,0,0,1,.128-.229.732.732,0,0,1,.427-.316,1.293,1.293,0,0,1,.352-.041,1.148,1.148,0,0,1,.3.03.393.393,0,0,1,.158.087.217.217,0,0,1,.062.133.535.535,0,0,1,0,.158Zm.316-1.106a.22.22,0,0,1-.063.087.354.354,0,0,1-.117.065.9.9,0,0,1-.18.041,2,2,0,0,1-.258.014,1.808,1.808,0,0,1-.253-.014.463.463,0,0,1-.145-.041.119.119,0,0,1-.06-.065.131.131,0,0,1,.008-.087l1.607-4.38a.27.27,0,0,1,.073-.112.375.375,0,0,1,.139-.079,1,1,0,0,1,.223-.046,3.126,3.126,0,0,1,.316-.014,2.791,2.791,0,0,1,.316.014.632.632,0,0,1,.186.046.123.123,0,0,1,.074.079.2.2,0,0,1-.017.112Z" transform="translate(-113.544 -60.968)" fill="#f1f1f1"/></g></svg>